<svg width="108" height="108" viewBox="0 0 108 108" fill="none" xmlns="http://www.w3.org/2000/svg">
<g filter="url(#filter0_d_21427_73)">
<path d="M52.3792 19.4145C53.3078 18.6041 54.6922 18.6041 55.6208 19.4145L64.327 27.0127C64.7327 27.3668 65.2433 27.5783 65.7806 27.6149L77.3096 28.3983C78.5392 28.4819 79.5181 29.4608 79.6017 30.6904L80.3852 42.2194C80.4217 42.7567 80.6332 43.2673 80.9873 43.673L88.5855 52.3792C89.3959 53.3078 89.3959 54.6922 88.5855 55.6208L80.9873 64.327C80.6332 64.7327 80.4217 65.2433 80.3852 65.7806L79.6017 77.3096C79.5181 78.5392 78.5392 79.5181 77.3096 79.6017L65.7806 80.3851C65.2433 80.4217 64.7327 80.6331 64.327 80.9873L55.6208 88.5855C54.6922 89.3959 53.3078 89.3959 52.3792 88.5855L43.673 80.9873C43.2673 80.6331 42.7567 80.4217 42.2194 80.3851L30.6904 79.6017C29.4608 79.5181 28.4819 78.5392 28.3983 77.3096L27.6149 65.7806C27.5783 65.2433 27.3668 64.7327 27.0127 64.327L19.4145 55.6208C18.6041 54.6922 18.6041 53.3078 19.4145 52.3792L27.0127 43.673C27.3668 43.2673 27.5783 42.7567 27.6149 42.2194L28.3983 30.6904C28.4819 29.4608 29.4608 28.4819 30.6904 28.3983L42.2194 27.6149C42.7567 27.5783 43.2673 27.3668 43.673 27.0127L52.3792 19.4145Z" fill="url(#paint0_radial_21427_73)"/>
</g>
<path fill-rule="evenodd" clip-rule="evenodd" d="M40.2668 42.3478C40.7525 41.8841 41.5401 41.8841 42.0259 42.3478L46.0951 46.2325C48.4566 45.0463 51.1462 44.375 54 44.375C56.8538 44.375 59.5434 45.0463 61.9049 46.2325L65.9741 42.3478C66.4599 41.8841 67.2475 41.8841 67.7332 42.3478C68.219 42.8116 68.219 43.5634 67.7332 44.0272L64.0682 47.5261C68.2722 50.4806 71 55.2383 71 60.6042C71 60.7365 70.9983 60.8684 70.995 61H37.005C37.0017 60.8684 37 60.7365 37 60.6042C37 55.2383 39.7278 50.4806 43.9318 47.5261L40.2668 44.0272C39.781 43.5634 39.781 42.8116 40.2668 42.3478ZM47.3659 55.4583C48.2818 55.4583 49.0244 54.7494 49.0244 53.875C49.0244 53.0005 48.2818 52.2917 47.3659 52.2917C46.4499 52.2917 45.7073 53.0005 45.7073 53.875C45.7073 54.7494 46.4499 55.4583 47.3659 55.4583ZM62.2927 53.875C62.2927 54.7494 61.5501 55.4583 60.6341 55.4583C59.7182 55.4583 58.9756 54.7494 58.9756 53.875C58.9756 53.0005 59.7182 52.2917 60.6341 52.2917C61.5501 52.2917 62.2927 53.0005 62.2927 53.875Z" fill="#3CDB83"/>
<defs>
<filter id="filter0_d_21427_73" x="18.8068" y="18.8068" width="71.3865" height="71.3865" filterUnits="userSpaceOnUse" color-interpolation-filters="sRGB">
<feFlood flood-opacity="0" result="BackgroundImageFix"/>
<feColorMatrix in="SourceAlpha" type="matrix" values="0 0 0 0 0 0 0 0 0 0 0 0 0 0 0 0 0 0 127 0" result="hardAlpha"/>
<feOffset dx="1" dy="1"/>
<feComposite in2="hardAlpha" operator="out"/>
<feColorMatrix type="matrix" values="0 0 0 0 0.196078 0 0 0 0 0.423529 0 0 0 0 0.913725 0 0 0 1 0"/>
<feBlend mode="normal" in2="BackgroundImageFix" result="effect1_dropShadow_21427_73"/>
<feBlend mode="normal" in="SourceGraphic" in2="effect1_dropShadow_21427_73" result="shape"/>
</filter>
<radialGradient id="paint0_radial_21427_73" cx="0" cy="0" r="1" gradientUnits="userSpaceOnUse" gradientTransform="translate(39.25 32.5) rotate(49.4258) scale(57.2696)">
<stop stop-color="#376A80"/>
<stop offset="1" stop-color="#013145"/>
</radialGradient>
</defs>
</svg>
