<svg width="432" height="432" viewBox="0 0 432 432" fill="none" xmlns="http://www.w3.org/2000/svg">
<g filter="url(#filter0_d_32_1396)">
<path d="M209.517 77.658C213.231 74.4165 218.769 74.4165 222.483 77.658L257.308 108.051C258.931 109.467 260.973 110.313 263.122 110.459L309.238 113.593C314.157 113.927 318.073 117.843 318.407 122.762L321.541 168.878C321.687 171.027 322.533 173.069 323.949 174.692L354.342 209.517C357.584 213.231 357.584 218.769 354.342 222.483L323.949 257.308C322.533 258.931 321.687 260.973 321.541 263.122L318.407 309.238C318.073 314.157 314.157 318.073 309.238 318.407L263.122 321.541C260.973 321.687 258.931 322.533 257.308 323.949L222.483 354.342C218.769 357.584 213.231 357.584 209.517 354.342L174.692 323.949C173.069 322.533 171.027 321.687 168.878 321.541L122.762 318.407C117.843 318.073 113.927 314.157 113.593 309.238L110.459 263.122C110.313 260.973 109.467 258.931 108.051 257.308L77.658 222.483C74.4165 218.769 74.4165 213.231 77.658 209.517L108.051 174.692C109.467 173.069 110.313 171.027 110.459 168.878L113.593 122.762C113.927 117.843 117.843 113.927 122.762 113.593L168.878 110.459C171.027 110.313 173.069 109.467 174.692 108.051L209.517 77.658Z" fill="url(#paint0_diamond_32_1396)"/>
</g>
<path fill-rule="evenodd" clip-rule="evenodd" d="M167 173H145V195H167V173ZM287 173H265V195H287V173ZM169 197H191V219H169V197ZM239 197H217V219H239V197ZM239 221H217V243H239V221ZM241 221H263V243H241V221ZM287 197H265V219H287V197ZM287 221H265V243H287V221ZM169 221H191V243H169V221ZM265 245H287V267H265V245ZM263 173H241V195H263V173ZM217 173H239V195H217V173ZM215 173H193V195H215V173ZM169 173H191V195H169V173Z" fill="#CAC7B5"/>
<defs>
<filter id="filter0_d_32_1396" x="75.2268" y="75.2268" width="285.546" height="285.546" filterUnits="userSpaceOnUse" color-interpolation-filters="sRGB">
<feFlood flood-opacity="0" result="BackgroundImageFix"/>
<feColorMatrix in="SourceAlpha" type="matrix" values="0 0 0 0 0 0 0 0 0 0 0 0 0 0 0 0 0 0 127 0" result="hardAlpha"/>
<feOffset dx="4" dy="4"/>
<feComposite in2="hardAlpha" operator="out"/>
<feColorMatrix type="matrix" values="0 0 0 0 0.517647 0 0 0 0 0.439216 0 0 0 0 0.388235 0 0 0 1 0"/>
<feBlend mode="normal" in2="BackgroundImageFix" result="effect1_dropShadow_32_1396"/>
<feBlend mode="normal" in="SourceGraphic" in2="effect1_dropShadow_32_1396" result="shape"/>
</filter>
<radialGradient id="paint0_diamond_32_1396" cx="0" cy="0" r="1" gradientUnits="userSpaceOnUse" gradientTransform="translate(157 130) rotate(49.4258) scale(229.079)">
<stop stop-color="#6C6B61"/>
<stop offset="1" stop-color="#654F42"/>
</radialGradient>
</defs>
</svg>
