<svg width="264" height="264" viewBox="0 0 264 264" fill="none" xmlns="http://www.w3.org/2000/svg">
<path d="M125.415 5.76191C129.185 2.46293 134.815 2.46294 138.585 5.76191L169.491 32.805C171.12 34.2298 173.166 35.088 175.324 35.2509L216.428 38.353C221.357 38.7251 225.275 42.6429 225.647 47.5721L228.749 88.6761C228.912 90.8337 229.77 92.8802 231.195 94.5086L258.238 125.415C261.537 129.185 261.537 134.815 258.238 138.585L231.195 169.491C229.77 171.12 228.912 173.166 228.749 175.324L225.647 216.428C225.275 221.357 221.357 225.275 216.428 225.647L175.324 228.749C173.166 228.912 171.12 229.77 169.491 231.195L138.585 258.238C134.815 261.537 129.185 261.537 125.415 258.238L94.5086 231.195C92.8802 229.77 90.8337 228.912 88.6761 228.749L47.5721 225.647C42.6429 225.275 38.7251 221.357 38.353 216.428L35.2509 175.324C35.088 173.166 34.2298 171.12 32.805 169.491L5.76191 138.585C2.46293 134.815 2.46294 129.185 5.76191 125.415L32.805 94.5086C34.2298 92.8802 35.088 90.8337 35.2509 88.6761L38.353 47.5721C38.7251 42.6429 42.6429 38.7251 47.5721 38.353L88.6761 35.2509C90.8337 35.088 92.8802 34.2298 94.5086 32.805L125.415 5.76191Z" fill="#1E1E1C"/>
<path fill-rule="evenodd" clip-rule="evenodd" d="M83 93H61V115H83V93ZM107 93H85V115H107V93ZM109 93H131V115H109V93ZM155 93H133V115H155V93ZM157 93H179V115H157V93ZM203 93H181V115H203V93ZM85 117H107V139H85V117ZM107 141H85V163H107V141ZM133 117H155V139H133V117ZM155 141H133V163H155V141ZM157 141H179V163H157V141ZM203 117H181V139H203V117ZM181 141H203V163H181V141ZM203 165H181V187H203V165Z" fill="white"/>
</svg>
