<svg width="434" height="434" viewBox="0 0 434 434" fill="none" xmlns="http://www.w3.org/2000/svg">
<rect x="1" y="1" width="432" height="432" stroke="black" stroke-miterlimit="0" stroke-linejoin="bevel"/>
<path fill-rule="evenodd" clip-rule="evenodd" d="M223.585 90.762C219.815 87.463 214.185 87.463 210.415 90.762L179.509 117.805C177.88 119.23 175.834 120.088 173.676 120.251L132.572 123.353C127.643 123.725 123.725 127.643 123.353 132.572L120.251 173.676C120.088 175.834 119.23 177.88 117.805 179.509L90.7618 210.415C87.4629 214.185 87.4629 219.815 90.7618 223.585L117.805 254.491C119.23 256.12 120.088 258.166 120.251 260.324L123.353 301.428C123.725 306.357 127.643 310.275 132.572 310.647L173.676 313.749C175.834 313.912 177.88 314.77 179.509 316.195L210.415 343.238C214.185 346.537 219.815 346.537 223.585 343.238L254.491 316.195C256.12 314.77 258.166 313.912 260.324 313.749L301.428 310.647C306.357 310.275 310.275 306.357 310.647 301.428L313.749 260.324C313.912 258.166 314.77 256.12 316.195 254.491L343.238 223.585C346.537 219.815 346.537 214.185 343.238 210.415L316.195 179.509C314.77 177.88 313.912 175.834 313.749 173.676L310.647 132.572C310.275 127.643 306.357 123.725 301.428 123.353L260.324 120.251C258.166 120.088 256.12 119.23 254.491 117.805L223.585 90.762ZM169.004 169.384C167.061 167.539 163.948 167.539 162.005 169.384C160.062 171.23 160.062 174.503 162.005 176.348L177.003 190.277C160.189 202.034 149.006 220.657 149.006 242.01C149.006 242.173 149.005 242.375 149.003 242.591C149 243.077 148.997 243.638 149.006 244H284.994C285.003 243.638 285 243.077 284.997 242.591C284.995 242.375 284.994 242.173 284.994 242.01C284.994 220.657 273.811 202.034 256.996 190.277L271.995 176.348C273.938 174.503 273.938 171.23 271.995 169.384C270.052 167.539 266.939 167.539 264.996 169.384L248.997 185.302C239.552 180.582 228.414 178.338 217 178.338C205.586 178.338 194.448 180.582 185.003 185.302L169.004 169.384ZM197.002 216.143C197.002 219.623 193.666 222.113 190.002 222.113C186.339 222.113 184.003 219.623 184.003 216.143C184.003 212.664 186.339 209.179 190.002 209.179C193.666 209.179 197.002 212.664 197.002 216.143ZM243.998 222.113C247.661 222.113 249.997 219.623 249.997 216.143C249.997 212.664 247.661 209.179 243.998 209.179C240.334 209.179 236.998 212.664 236.998 216.143C236.998 219.623 240.334 222.113 243.998 222.113Z" fill="#004F55"/>
</svg>
